<?xml version="1.0" encoding="utf-8"?>
<?xml-stylesheet type="text/xsl" href="rss1.xsl"?>
<rss version="2.0" xmlns:atom="http://www.w3.org/2005/Atom" xmlns:content="http://purl.org/rss/1.0/modules/content/" xmlns:dc="http://purl.org/dc/elements/1.1/" xmlns:media="http://search.yahoo.com/mrss/">
<channel>
 <title>Getty</title>
 <link>http://www.gettyimg.com/</link>
 <atom:link href="http://www.gettyimg.com/" rel="self" type="application/rss+xml" />

 
                <item>
                <title><![CDATA[【HD Live Performances】WEB-RiP - Kylie Minogue - Padam Padam_Can't Get You Out Of My Head (Capital's Summertime Ball 06-11-2023) 886p WEB-DL AAC2.0 H.264]]></title>
                <link><![CDATA[https://sharemania.us/threads/kylie-minogue-padam-padam_cant-get-you-out-of-my-head-capitals-summertime-ball-06-11-2023-886p-web-dl-aac2-0-h-264.222493/]]></link>
                <description><![CDATA[<article>
<blockquote class="messageText SelectQuoteContainer ugc baseHtml">
<div style="text-align: center"><img src="https://i.imgur.com/QAYoPSE.jpg" class="bbCodeImage LbImage" alt="[​IMG]" data-url="https://i.imgur.com/QAYoPSE.jpg" style=""><br>
<div class="ToggleTriggerAnchor bbCodeSpoilerContainer">
<button type="button" class="button bbCodeSpoilerButton ToggleTrigger Tooltip JsOnly" data-target="> .SpoilerTarget"><span>Spoiler: <span class="SpoilerTitle">MediaInfo</span></span></button>
<div class="SpoilerTarget bbCodeSpoilerText">General<br>
Complete name : C:\Kylie Minogue - Padam Padam_Can't Get You Out Of My Head (Capital's Summertime Ball 06-11-2023) 886p WEB-DL AAC2.0 H.264.mp4<br>
Format : MPEG-4<br>
Format profile : QuickTime<br>
Codec ID : qt 0000.00 (qt )<br>
File size : 651 MiB<br>
Duration : 8 min 44 s<br>
Overall bit rate : 10.4 Mb/s<br>
Encoded date : UTC 2023-06-11 18:04:08<br>
Tagged date : UTC 2023-06-11 18:05:07<br>
Writing library : Apple QuickTime<br>
com.apple.quicktime.author : ReplayKitRecording<br>
<br>
Video<br>
ID : 1<br>
Format : HEVC<br>
Format/Info : High Efficiency Video Coding<br>
Format profile : Main@L4@Main<br>
Codec ID : hvc1<br>
Codec ID/Info : High Efficiency Video Coding<br>
Duration : 8 min 44 s<br>
Bit rate : 10.3 Mb/s<br>
Width : 886 pixels<br>
Clean aperture width : 886 pixels<br>
Height : 1 562 pixels<br>
Clean aperture height : 1 562 pixels<br>
Display aspect ratio : 0.567<br>
Rotation : 270°<br>
Frame rate mode : Variable<br>
Frame rate : 25.100 FPS<br>
Minimum frame rate : 19.355 FPS<br>
Maximum frame rate : 60.000 FPS<br>
Color space : YUV<br>
Chroma subsampling : 4:2:0<br>
Bit depth : 8 bits<br>
Bits/(Pixel*Frame) : 0.296<br>
Stream size : 643 MiB (99%)<br>
Title : Core Media Video<br>
Encoded date : UTC 2023-06-11 18:04:08<br>
Tagged date : UTC 2023-06-11 18:05:07<br>
Color range : Full<br>
Color primaries : BT.709<br>
colour_primaries_Original : BT.709<br>
Transfer characteristics : BT.709<br>
transfer_characteristics_Origi : BT.709<br>
Matrix coefficients : BT.709<br>
matrix_coefficients_Original : BT.709<br>
Codec configuration box : hvcC<br>
<br>
Audio<br>
ID : 2<br>
Format : AAC LC<br>
Format/Info : Advanced Audio Codec Low Complexity<br>
Codec ID : mp4a-40-2<br>
Duration : 8 min 44 s<br>
Source duration : 8 min 44 s<br>
Bit rate mode : Constant<br>
Bit rate : 128 kb/s<br>
Channel(s) : 2 channels<br>
Channel layout : L R<br>
Sampling rate : 44.1 kHz<br>
Frame rate : 43.066 FPS (1024 SPF)<br>
Compression mode : Lossy<br>
Stream size : 7.94 MiB (1%)<br>
Source stream size : 7.94 MiB (1%)<br>
Title : Core Media Audio<br>
Encoded date : UTC 2023-06-11 18:04:08<br>
Tagged date : UTC 2023-06-11 18:05:07</div>
</div>
<div class="bbCodeBlock bbCodeVfcHH HiddenContent">
<div class="attribution type">Hidden Content:</div>
<blockquote>You must reply before you can see the hidden data contained here.</blockquote>
</div></div>
<div class="messageTextEndMarker">&nbsp;</div>
</blockquote>
</article>]]></description>
                <author><![CDATA[Yennefer]]></author>
                </item>

                </channel></rss>